<svg
  xmlns="http://www.w3.org/2000/svg"
  viewBox="0 0 24 24"
  fill="none"
  stroke="currentColor"
  className="w-16 h-16"
>
  <defs>
    <linearGradient id="kettlebellGradient" x1="0%" y1="0%" x2="100%" y2="100%">
      <stop offset="0%" style="stop-color:#4A90E2;stop-opacity:1" />
      <stop offset="100%" style="stop-color:#0056A0;stop-opacity:1" />
    </linearGradient>
  </defs>
  <path
    d="M12 3C9.79 3 8 4.79 8 7V9C8 11.21 9.79 13 12 13C14.21 13 16 11.21 16 9V7C16 4.79 14.21 3 12 3ZM6 13V15C6 15.55 6.45 16 7 16H17C17.55 16 18 15.55 18 15V13H6ZM12 15C10.34 15 9 16.34 9 18V19C9 20.66 10.34 22 12 22C13.66 22 15 20.66 15 19V18C15 16.34 13.66 15 12 15Z"
    fill="url(#kettlebellGradient)"
    stroke="none"
  />
</svg>
